<?xml version="1.0" encoding="UTF-8"?>
<svg viewBox="0 0 1000 920" width="1000" height="920" xmlns="http://www.w3.org/2000/svg" style="font-family: ui-sans-serif, system-ui, -apple-system, BlinkMacSystemFont, 'Segoe UI', sans-serif; background: #f4f7fb;">
  <defs>
    <marker id="a" viewBox="0 0 10 10" refX="9" refY="5" markerWidth="6" markerHeight="6" orient="auto">
      <path d="M0 0L10 5L0 10z" fill="#64748b"/>
    </marker>
  </defs>

  <rect width="1000" height="920" fill="#f4f7fb" rx="8"/>

  <!-- Title -->
  <text x="30" y="35" font-size="18" font-weight="700" fill="#0f172a">Real-Life Connector Actors — Who Helps Families Reach Diagnostic Readiness?</text>
  <text x="30" y="53" font-size="11" fill="#64748b" font-style="italic">Complement to FASD/NDD Diagnostic Readiness Workflow · Not a referral pathway · Not a diagnostic role map</text>

  <!-- Status badges -->
  <rect x="30" y="63" width="80" height="20" rx="4" fill="#fef3c7" stroke="#f59e0b" stroke-width="0.5"/>
  <text x="70" y="77" font-size="9" font-weight="700" fill="#92400e" text-anchor="middle">Internal Draft</text>
  <rect x="118" y="63" width="66" height="20" rx="4" fill="#e0e7ff" stroke="#6366f1" stroke-width="0.5"/>
  <text x="151" y="77" font-size="9" font-weight="700" fill="#4338ca" text-anchor="middle">Non-PHI</text>
  <rect x="192" y="63" width="140" height="20" rx="4" fill="#f1f5f9" stroke="#94a3b8" stroke-width="0.5"/>
  <text x="262" y="77" font-size="9" font-weight="700" fill="#475569" text-anchor="middle">Not for external distribution</text>
  <rect x="340" y="63" width="116" height="20" rx="4" fill="#f1f5f9" stroke="#94a3b8" stroke-width="0.5"/>
  <text x="398" y="77" font-size="9" font-weight="700" fill="#475569" text-anchor="middle">No referral pathway</text>

  <!-- Section intro -->
  <text x="30" y="105" font-size="13" font-weight="700" fill="#334155">Who may notice concerns and help families move toward PCP / medical home discussion</text>

  <!-- ============================== -->
  <!-- ROW 1: 3 cards -->
  <!-- ============================== -->

  <!-- Card 1: Home / Family -->
  <rect x="30" y="120" width="300" height="170" rx="8" fill="#e0f2fe" stroke="#7dd3fc" stroke-width="1.2"/>
  <rect x="30" y="120" width="300" height="28" rx="8" fill="#38bdf8"/>
  <rect x="30" y="138" width="300" height="10" fill="#38bdf8"/>
  <text x="180" y="139" font-size="13" font-weight="700" fill="#ffffff" text-anchor="middle">1. Home / Family Setting</text>
  <text x="45" y="165" font-size="10" font-weight="600" fill="#0369a1">Who:</text>
  <text x="45" y="180" font-size="10" fill="#475569">Parents, foster/kinship caregivers,</text>
  <text x="45" y="194" font-size="10" fill="#475569">grandparents, babysitters</text>
  <text x="45" y="212" font-size="10" font-weight="600" fill="#0369a1">Role:</text>
  <text x="45" y="227" font-size="10" fill="#475569">Observe behavior, sleep, learning,</text>
  <text x="45" y="241" font-size="10" fill="#475569">regulation, daily functioning</text>
  <text x="45" y="259" font-size="10" font-weight="600" fill="#0369a1">Action:</text>
  <text x="45" y="274" font-size="10" fill="#475569">Track patterns, gather records,</text>
  <text x="45" y="288" font-size="10" fill="#475569">prepare questions for PCP</text>

  <!-- Card 2: School Setting -->
  <rect x="350" y="120" width="300" height="170" rx="8" fill="#e0f2fe" stroke="#7dd3fc" stroke-width="1.2"/>
  <rect x="350" y="120" width="300" height="28" rx="8" fill="#38bdf8"/>
  <rect x="350" y="138" width="300" height="10" fill="#38bdf8"/>
  <text x="500" y="139" font-size="13" font-weight="700" fill="#ffffff" text-anchor="middle">2. School Setting</text>
  <text x="365" y="165" font-size="10" font-weight="600" fill="#0369a1">Who:</text>
  <text x="365" y="180" font-size="10" fill="#475569">Teachers, EC teachers, school nurses,</text>
  <text x="365" y="194" font-size="10" fill="#475569">counselors, social workers, IEP team</text>
  <text x="365" y="212" font-size="10" font-weight="600" fill="#0369a1">Role:</text>
  <text x="365" y="227" font-size="10" fill="#475569">Notice learning, behavior, somatic</text>
  <text x="365" y="241" font-size="10" fill="#475569">complaints, shutdown, school function</text>
  <text x="365" y="259" font-size="10" font-weight="600" fill="#0369a1">Action:</text>
  <text x="365" y="274" font-size="10" fill="#475569">Help identify IEP/testing/school records</text>
  <text x="365" y="288" font-size="10" fill="#475569">Encourage caregiver-PCP discussion</text>

  <!-- Card 3: Public Health -->
  <rect x="670" y="120" width="300" height="170" rx="8" fill="#e0f2fe" stroke="#7dd3fc" stroke-width="1.2"/>
  <rect x="670" y="120" width="300" height="28" rx="8" fill="#38bdf8"/>
  <rect x="670" y="138" width="300" height="10" fill="#38bdf8"/>
  <text x="820" y="139" font-size="13" font-weight="700" fill="#ffffff" text-anchor="middle">3. Public Health / Child Services</text>
  <text x="685" y="165" font-size="10" font-weight="600" fill="#0369a1">Who:</text>
  <text x="685" y="180" font-size="10" fill="#475569">WIC staff, nutritionists, public health</text>
  <text x="685" y="194" font-size="10" fill="#475569">nurses, care managers, CDSA staff</text>
  <text x="685" y="212" font-size="10" font-weight="600" fill="#0369a1">Role:</text>
  <text x="685" y="227" font-size="10" fill="#475569">Notice developmental, feeding, growth,</text>
  <text x="685" y="241" font-size="10" fill="#475569">caregiver-support concerns</text>
  <text x="685" y="259" font-size="10" font-weight="600" fill="#0369a1">Action:</text>
  <text x="685" y="274" font-size="10" fill="#475569">Encourage medical home follow-up</text>
  <text x="685" y="288" font-size="10" fill="#475569">Help families identify useful records</text>

  <!-- ============================== -->
  <!-- ROW 2: 3 cards -->
  <!-- ============================== -->

  <!-- Card 4: Medical Home -->
  <rect x="30" y="310" width="300" height="170" rx="8" fill="#ccfbf1" stroke="#5eead4" stroke-width="1.2"/>
  <rect x="30" y="310" width="300" height="28" rx="8" fill="#14b8a6"/>
  <rect x="30" y="328" width="300" height="10" fill="#14b8a6"/>
  <text x="180" y="329" font-size="13" font-weight="700" fill="#ffffff" text-anchor="middle">4. Medical Home / Clinic</text>
  <text x="45" y="355" font-size="10" font-weight="600" fill="#0f766e">Who:</text>
  <text x="45" y="370" font-size="10" fill="#475569">Pediatric PCP, nurse, medical assistant,</text>
  <text x="45" y="384" font-size="10" fill="#475569">referral coordinator, BH clinician</text>
  <text x="45" y="402" font-size="10" font-weight="600" fill="#0f766e">Role:</text>
  <text x="45" y="417" font-size="10" fill="#475569">Clinical gatekeeper</text>
  <text x="45" y="435" font-size="10" font-weight="600" fill="#0f766e">Action:</text>
  <text x="45" y="450" font-size="10" fill="#475569">Review concern and records</text>
  <text x="45" y="464" font-size="10" fill="#475569">Determine next step within approved workflow</text>

  <!-- Card 5: Community / Church -->
  <rect x="350" y="310" width="300" height="170" rx="8" fill="#fdf4ff" stroke="#d8b4fe" stroke-width="1.2"/>
  <rect x="350" y="310" width="300" height="28" rx="8" fill="#a855f7"/>
  <rect x="350" y="328" width="300" height="10" fill="#a855f7"/>
  <text x="500" y="329" font-size="13" font-weight="700" fill="#ffffff" text-anchor="middle">5. Community / Church Support</text>
  <text x="365" y="355" font-size="10" font-weight="600" fill="#7e22ce">Who:</text>
  <text x="365" y="370" font-size="10" fill="#475569">Pastor, deacon, children's ministry,</text>
  <text x="365" y="384" font-size="10" fill="#475569">trusted church family, neighbor, mentor</text>
  <text x="365" y="402" font-size="10" font-weight="600" fill="#7e22ce">Role:</text>
  <text x="365" y="417" font-size="10" fill="#475569">Notice family stress or child difficulty</text>
  <text x="365" y="431" font-size="10" fill="#475569">Provide relational and practical support</text>
  <text x="365" y="449" font-size="10" font-weight="600" fill="#7e22ce">Action:</text>
  <text x="365" y="464" font-size="10" fill="#475569">Encourage family to talk with PCP</text>
  <text x="365" y="478" font-size="10" fill="#475569">Help reduce isolation · No clinical role</text>

  <!-- Card 6: CHW / Navigator -->
  <rect x="670" y="310" width="300" height="170" rx="8" fill="#fce7f3" stroke="#f472b6" stroke-width="1.2" stroke-dasharray="5 4"/>
  <rect x="670" y="310" width="300" height="28" rx="8" fill="#ec4899"/>
  <rect x="670" y="328" width="300" height="10" fill="#ec4899"/>
  <text x="820" y="329" font-size="13" font-weight="700" fill="#ffffff" text-anchor="middle">6. CHW / Family Navigator</text>
  <text x="685" y="355" font-size="10" font-weight="700" fill="#be185d">(Pending approval)</text>
  <text x="685" y="375" font-size="10" font-weight="600" fill="#be185d">Who:</text>
  <text x="685" y="390" font-size="10" fill="#475569">Family navigator / community health</text>
  <text x="685" y="404" font-size="10" fill="#475569">worker (if approved later)</text>
  <text x="685" y="422" font-size="10" font-weight="600" fill="#be185d">Role:</text>
  <text x="685" y="437" font-size="10" fill="#475569">Help family understand steps, organize</text>
  <text x="685" y="451" font-size="10" fill="#475569">records, prepare questions, follow up</text>
  <rect x="685" y="462" width="270" height="1" fill="#f9a8d4"/>
  <text x="685" y="475" font-size="11" font-weight="700" fill="#be185d">Boundary:</text>
  <text x="685" y="490" font-size="10" fill="#be185d">No diagnosis · No independent referral</text>

  <!-- ============================== -->
  <!-- Central connector arrow: all 6 converge to PCP -->
  <!-- ============================== -->
  <path d="M180 290 L180 315" stroke="#94a3b8" stroke-width="1" fill="none" marker-end="url(#a)"/>
  <path d="M500 290 L500 315" stroke="#94a3b8" stroke-width="1" fill="none" marker-end="url(#a)"/>
  <path d="M820 290 L820 315" stroke="#94a3b8" stroke-width="1" fill="none" marker-end="url(#a)"/>

  <!-- Arrow from each group pointing rightward toward common destination -->
  <!-- Instead, add "→ PCP" indicator at bottom of each card in row 1 -->
  <!-- And row 2 arrows down -->
  <path d="M180 480 L180 510" stroke="#94a3b8" stroke-width="1.5" fill="none" marker-end="url(#a)"/>
  <path d="M500 480 L500 510" stroke="#94a3b8" stroke-width="1.5" fill="none" marker-end="url(#a)"/>
  <path d="M820 480 L820 510" stroke="#94a3b8" stroke-width="1.5" fill="none" marker-end="url(#a)"/>

  <!-- ============================== -->
  <!-- PCP Convergence / Destination -->
  <!-- ============================== -->
  <path d="M180 510 L500 510" stroke="#94a3b8" stroke-width="1" fill="none"/>
  <path d="M820 510 L500 510" stroke="#94a3b8" stroke-width="1" fill="none"/>
  <path d="M500 510 L500 530" stroke="#94a3b8" stroke-width="1.5" fill="none" marker-end="url(#a)"/>

  <rect x="350" y="530" width="300" height="40" rx="8" fill="#a7f3d0" stroke="#34d399" stroke-width="1.5"/>
  <text x="500" y="550" font-size="15" font-weight="700" fill="#166534" text-anchor="middle">PCP / Medical Home Discussion</text>
  <text x="500" y="565" font-size="10" fill="#475569" text-anchor="middle">All connector actors help families reach this point</text>

  <!-- ============================== -->
  <!-- Key Principle -->
  <!-- ============================== -->
  <rect x="30" y="595" width="940" height="30" rx="5" fill="#eef2f6" stroke="#cbd5e1" stroke-width="1"/>
  <text x="50" y="615" font-size="12" font-weight="600" fill="#334155">Connector actors are educational/supportive only. PCP / medical home remains the clinical gatekeeper. Community actors do not diagnose.</text>

  <!-- ============================== -->
  <!-- BOUNDARY BOX -->
  <!-- ============================== -->
  <rect x="30" y="645" width="940" height="130" rx="6" fill="#fef2f2" stroke="#fca5a5" stroke-width="1.5"/>
  <text x="50" y="667" font-size="14" font-weight="700" fill="#991b1b">Boundary Box</text>
  <g font-size="11" fill="#991b1b">
    <text x="50" y="687">No PHI  |  No diagnosis by community actors  |  No independent referral pathway</text>
    <text x="50" y="705">PCP / medical home remains clinical gatekeeper</text>
    <text x="50" y="723">No Holly / Contentnea / Proof Alliance endorsement implied</text>
    <text x="50" y="741">No DSS / court pathway</text>
    <text x="50" y="765" font-weight="700">Internal draft only  |  Not for external distribution  |  Non-PHI</text>
  </g>
</svg>
